<svg xmlns="http://www.w3.org/2000/svg" width="64" height="44.335" viewBox="0 0 64 44.335">
  <path id="eye" d="M32,123.445c-6.529,0-13.1-2.709-19.543-8.051A68.385,68.385,0,0,1,1.994,104.168c-.341-.446-.974-1.381-1.045-1.486L0,101.278l.95-1.4c.071-.105.7-1.04,1.045-1.485A68.388,68.388,0,0,1,12.457,87.161C18.9,81.819,25.471,79.11,32,79.11s13.1,2.709,19.543,8.051A68.385,68.385,0,0,1,62.006,98.387c.341.446.974,1.38,1.045,1.486l.949,1.4-.949,1.405c-.071.105-.7,1.04-1.045,1.486a68.4,68.4,0,0,1-10.463,11.226C45.1,120.737,38.529,123.445,32,123.445ZM6.08,101.278c8.745,11.385,17.465,17.158,25.92,17.158s17.174-5.773,25.92-17.158C49.175,89.893,40.454,84.12,32,84.12S14.826,89.892,6.08,101.278ZM32,106.162a4.884,4.884,0,1,0-4.872-4.884A4.878,4.878,0,0,0,32,106.162Zm0,9.393a14.278,14.278,0,1,1,14.241-14.277A14.276,14.276,0,0,1,32,115.555ZM32,92.01a9.268,9.268,0,1,0,9.244,9.268A9.267,9.267,0,0,0,32,92.01Z" transform="translate(0 -79.11)" fill="#545454"/>
</svg>
