<svg xmlns="http://www.w3.org/2000/svg" width="64" height="64.034" viewBox="0 0 64 64.034">
  <path id="hide" d="M32,46.811A14.276,14.276,0,0,1,17.759,32.533a14.441,14.441,0,0,1,.38-3.3l4.73,4.742a9.278,9.278,0,0,0,7.693,7.712l4.728,4.74A14.3,14.3,0,0,1,32,46.811Zm18.472.7,13.464,13.5L60.4,64.55.064,4.058,3.6.516,17.709,14.664A27.628,27.628,0,0,1,32,10.365c6.529,0,13.1,2.709,19.543,8.051A68.384,68.384,0,0,1,62.006,29.642c.341.446.974,1.38,1.045,1.486l.95,1.4-.949,1.405c-.071.105-.7,1.04-1.045,1.486A66.76,66.76,0,0,1,50.472,47.509ZM21.37,18.333l2.482,2.489A14.267,14.267,0,0,1,43.682,40.7l3.227,3.236A59.609,59.609,0,0,0,57.92,32.533C49.175,21.148,40.454,15.375,32,15.375A22.1,22.1,0,0,0,21.37,18.333Zm15.5,14.2a4.91,4.91,0,0,1-.147,1.194l3.336,3.345a9.253,9.253,0,0,0-12.588-12.62L30.809,27.8a4.873,4.873,0,0,1,6.063,4.737ZM32,49.691c-8.454,0-17.174-5.773-25.92-17.158a68.368,68.368,0,0,1,7.168-8.119L9.713,20.87a73.787,73.787,0,0,0-7.719,8.772c-.341.446-.974,1.38-1.045,1.486L0,32.533l.949,1.405c.071.105.7,1.04,1.045,1.486A68.4,68.4,0,0,0,12.457,46.65C18.9,51.992,25.471,54.7,32,54.7a25.526,25.526,0,0,0,9.543-1.92L37.62,48.848A19.741,19.741,0,0,1,32,49.691Z" transform="translate(0 -0.516)" fill="#545454"/>
</svg>
